<svg width="25" height="24" viewBox="0 0 25 24" fill="none" xmlns="http://www.w3.org/2000/svg">
<path fill-rule="evenodd" clip-rule="evenodd" d="M17.75 15V9C17.75 6.23858 15.5114 4 12.75 4C9.98858 4 7.75 6.23858 7.75 9V15C7.75 17.7614 9.98858 20 12.75 20C15.5114 20 17.75 17.7614 17.75 15ZM12.75 2C8.88401 2 5.75 5.13401 5.75 9V15C5.75 18.866 8.88401 22 12.75 22C16.616 22 19.75 18.866 19.75 15V9C19.75 5.13401 16.616 2 12.75 2Z" fill="#1A1D1F"/>
<path fill-rule="evenodd" clip-rule="evenodd" d="M12.75 6C13.3023 6 13.75 6.44772 13.75 7L13.75 10C13.75 10.5523 13.3023 11 12.75 11C12.1977 11 11.75 10.5523 11.75 10L11.75 7C11.75 6.44771 12.1977 6 12.75 6Z" fill="#1A1D1F"/>
</svg>
